HIERARCHY
ROOT root
{
	OFFSET 0.000000 0.000000 0.000000
	CHANNELS 6 Xposition Yposition Zposition Zrotation Yrotation Xrotation
	JOINT lhip
	{
		OFFSET 0.058581 -0.082280 -0.017664
		CHANNELS 3 Zrotation Yrotation Xrotation
		JOINT lknee
		{
			OFFSET 0.043451 -0.386469 0.008037
			CHANNELS 3 Zrotation Yrotation Xrotation
			JOINT lankle
			{
				OFFSET -0.014790 -0.426874 -0.037428
				CHANNELS 3 Zrotation Yrotation Xrotation
				JOINT ltoe
				{
					OFFSET 0.041054 -0.060286 0.122042
					CHANNELS 3 Zrotation Yrotation Xrotation
					End Site
					{
						OFFSET 0.000000 0.000000 0.000000
					}
				}
			}
		}
	}
	JOINT rhip
	{
		OFFSET -0.060310 -0.090513 -0.013543
		CHANNELS 3 Zrotation Yrotation Xrotation
		JOINT rknee
		{
			OFFSET -0.043257 -0.383688 -0.004843
			CHANNELS 3 Zrotation Yrotation Xrotation
			JOINT rankle
			{
				OFFSET 0.019056 -0.420046 -0.034562
				CHANNELS 3 Zrotation Yrotation Xrotation
				JOINT rtoe
				{
					OFFSET -0.034840 -0.062106 0.130323
					CHANNELS 3 Zrotation Yrotation Xrotation
					End Site
					{
						OFFSET 0.000000 0.000000 0.000000
					}
				}
			}
		}
	}
	JOINT lowerback
	{
		OFFSET 0.004439 0.124404 -0.038385
		CHANNELS 3 Zrotation Yrotation Xrotation
		JOINT upperback
		{
			OFFSET 0.004488 0.137956 0.026820
			CHANNELS 3 Zrotation Yrotation Xrotation
			JOINT chest
			{
				OFFSET -0.002265 0.056032 0.002855
				CHANNELS 3 Zrotation Yrotation Xrotation
				JOINT lowerneck
				{
					OFFSET -0.013390 0.211636 -0.033468
					CHANNELS 3 Zrotation Yrotation Xrotation
					JOINT upperneck
					{
						OFFSET 0.010113 0.088937 0.050410
						CHANNELS 3 Zrotation Yrotation Xrotation
						End Site
						{
							OFFSET 0.000000 0.000000 0.000000
						}
					}
				}
				JOINT lclavicle
				{
					OFFSET 0.071702 0.114000 -0.018898
					CHANNELS 3 Zrotation Yrotation Xrotation
					JOINT lshoulder
					{
						OFFSET 0.122921 0.045205 -0.019046
						CHANNELS 3 Zrotation Yrotation Xrotation
						JOINT lelbow
						{
							OFFSET 0.255332 -0.015649 -0.022946
							CHANNELS 3 Zrotation Yrotation Xrotation
							JOINT lwrist
							{
								OFFSET 0.265709 0.012698 -0.007375
								CHANNELS 3 Zrotation Yrotation Xrotation
								End Site
								{
									OFFSET 0.000000 0.000000 0.000000
								}
							}
						}
					}
				}
				JOINT rclavicle
				{
					OFFSET -0.082954 0.112472 -0.023707
					CHANNELS 3 Zrotation Yrotation Xrotation
					JOINT rshoulder
					{
						OFFSET -0.113228 0.046853 -0.008472
						CHANNELS 3 Zrotation Yrotation Xrotation
						JOINT relbow
						{
							OFFSET -0.260127 -0.014369 -0.031269
							CHANNELS 3 Zrotation Yrotation Xrotation
							JOINT rwrist
							{
								OFFSET -0.269108 0.006794 -0.006027
								CHANNELS 3 Zrotation Yrotation Xrotation
								End Site
								{
									OFFSET 0.000000 0.000000 0.000000
								}
							}
						}
					}
				}
			}
		}
	}
}
MOTION
Frames: 8
Frame Time: 0.033333
1.203006 0.226642 0.992570 97.495260 -3.758117 89.364847 2.593933 0.450087 2.385994 -3.247822 -11.400935 4.254873 2.545161 5.650365 -10.845605 0.000000 -0.000000 0.000000 -3.099225 -4.954847 -3.567385 1.477985 -7.526712 17.140201 1.435489 -10.280041 -13.815686 0.000000 -0.000000 0.000000 0.268008 -1.112793 7.893832 2.406394 -3.053180 -0.520307 -0.652940 -3.683155 3.496061 0.330244 5.371099 15.620917 -5.598555 -0.216867 19.414690 -26.092060 7.882061 4.241093 -58.740128 -11.501846 10.009861 6.685261 -29.943271 10.485389 -6.882194 -1.516543 -5.689905 31.716022 -7.801525 1.140358 55.669506 6.502007 7.526563 -18.444694 7.164779 -15.618905 6.598283 -0.531126 -8.375142 
1.205062 0.226283 0.992360 97.407970 -3.817875 89.548360 2.556153 0.398689 2.421585 -3.250006 -11.379150 4.086327 2.491868 5.826407 -11.059028 0.000000 -0.000000 0.000000 -3.093955 -4.820241 -3.579835 1.514497 -7.536308 17.004552 1.488123 -10.541879 -13.816436 0.000000 -0.000000 0.000000 0.375772 -1.305921 7.747195 2.345404 -3.170468 -0.360313 -0.832230 -3.894664 3.680988 0.218353 5.605281 15.470802 -5.181896 0.102280 19.542254 -25.937432 8.089151 4.299672 -58.713516 -11.804458 10.155986 6.607194 -30.753278 10.445431 -6.610296 -1.723796 -5.734541 31.901018 -8.394066 0.924041 55.643006 5.402094 7.413756 -18.296197 6.550107 -15.759274 6.673684 -0.601455 -8.128911 
1.207755 0.225968 0.992066 97.158207 -3.867313 89.599024 2.552370 0.621727 2.789013 -3.181297 -11.544884 3.743515 2.518197 5.896257 -10.843469 0.000000 -0.000000 0.000000 -3.113705 -4.881355 -3.488135 1.526695 -7.378357 17.087979 1.659263 -10.358367 -14.149545 0.000000 -0.000000 0.000000 0.488363 -1.517715 7.719635 2.315581 -3.253222 -0.345393 -0.936366 -3.992529 3.873784 0.126680 5.877514 15.668600 -4.992778 0.447434 19.457509 -25.904957 8.210762 4.355391 -58.687164 -11.962780 10.164149 6.455317 -31.478700 10.780814 -6.637967 -1.710049 -5.787042 31.579233 -9.228686 0.910192 55.741620 4.327277 7.271453 -18.185720 6.390309 -15.149304 6.863340 -0.870883 -8.125517 
1.208723 0.225678 0.992026 97.099882 -3.998072 89.841903 2.384278 0.360924 2.563825 -3.196512 -11.665258 4.024997 2.739874 5.976393 -10.498138 0.000000 -0.000000 0.000000 -3.238791 -5.024212 -3.791560 1.547703 -7.399794 17.252669 1.622611 -10.392864 -14.217141 0.000000 -0.000000 0.000000 0.490416 -1.619532 7.919420 2.381042 -3.490252 -0.596059 -0.904473 -4.307924 3.795794 -0.028049 6.254552 16.075493 -5.166125 1.051667 19.374925 -26.106137 8.227743 4.523939 -58.517143 -12.117929 10.133230 6.286360 -32.125911 10.764018 -6.595293 -1.720907 -6.127566 31.185514 -9.998573 1.171178 55.775888 3.593326 7.090647 -18.302645 6.249511 -15.197546 6.985301 -1.065156 -8.094658 
1.210287 0.225184 0.991851 96.918503 -4.049192 89.933189 2.362883 0.402835 2.587391 -3.155669 -11.653395 3.970241 2.590845 6.099478 -10.666065 0.000000 -0.000000 0.000000 -3.242573 -5.198846 -3.796692 1.551627 -7.156595 17.244203 1.748335 -10.237613 -14.263309 0.000000 -0.000000 0.000000 0.519405 -1.813053 7.978990 2.420991 -3.731435 -0.613157 -0.919902 -4.422889 3.969257 -0.219088 6.279483 16.289245 -5.228814 1.194339 19.789809 -26.181668 8.274897 4.518615 -58.550369 -12.246138 10.197217 6.114742 -32.726694 10.880636 -6.230905 -1.864269 -5.994625 30.747060 -10.673596 1.176859 55.762482 2.705284 6.972124 -18.366579 6.387611 -14.980077 6.977871 -1.130628 -8.015263 
1.211180 0.224393 0.991677 96.508444 -4.032297 90.123206 2.437193 0.522410 2.316886 -3.251327 -11.479696 4.254355 2.507179 6.188980 -10.794665 0.000000 -0.000000 0.000000 -3.165893 -5.216025 -3.992751 1.536874 -6.980274 17.268814 1.659624 -10.296081 -14.338352 0.000000 -0.000000 0.000000 0.553201 -1.954966 7.790022 2.446495 -3.867812 -0.494811 -0.971109 -4.539536 4.369127 -0.053635 6.736388 16.114606 -5.036397 1.507164 19.929423 -26.333864 8.242727 4.272735 -58.477594 -12.442349 10.361606 6.004432 -33.232079 11.166253 -6.195280 -1.782681 -6.193916 30.456902 -11.193549 1.022369 55.562324 2.093064 6.913415 -18.286008 6.209822 -14.909871 7.033966 -1.288641 -8.338418 
1.213303 0.223665 0.991529 96.028007 -4.035369 90.085169 2.516002 0.775260 2.645364 -3.323388 -11.474064 4.171826 2.501896 6.200040 -10.669352 0.000000 -0.000000 0.000000 -3.190389 -5.612822 -3.658750 1.665354 -6.530125 16.930425 1.784217 -9.942518 -14.498172 0.000000 -0.000000 0.000000 0.527097 -1.996909 7.534690 2.459101 -3.994430 -0.125494 -1.021854 -4.696305 4.756390 0.085376 7.031404 15.979115 -4.911208 1.752980 20.169026 -26.473878 8.149553 4.034149 -58.438175 -12.559573 10.510184 5.913498 -33.511466 11.045930 -5.958212 -1.858830 -6.181848 30.274769 -11.844618 0.598626 55.197955 1.458609 6.949857 -18.253339 6.369587 -14.527682 7.174537 -1.303567 -8.010807 
1.213684 0.222855 0.991727 95.423069 -3.983164 90.112822 2.601603 0.865783 2.805015 -3.343955 -11.265938 4.120775 2.231468 6.322284 -10.496505 0.000000 -0.000000 0.000000 -3.088151 -5.487830 -3.658258 1.658864 -6.316055 16.870696 1.777912 -9.746989 -14.407085 0.000000 -0.000000 0.000000 0.596472 -2.126279 7.442486 2.332704 -4.023707 0.161549 -1.201673 -4.868268 4.802895 0.128201 6.897483 16.357208 -5.032176 2.575356 20.324935 -26.355823 8.319879 3.949193 -58.480080 -12.801300 10.405281 5.674797 -33.706960 11.085843 -5.857233 -1.828088 -6.129593 30.220549 -12.083053 0.993417 55.019302 1.121720 6.798268 -18.413608 6.356842 -14.688248 7.132901 -1.486624 -7.667234 
